HIERARCHY
ROOT Hips
{
	OFFSET 0.000000 83.214638 0.000000
	CHANNELS 6 Xposition Yposition Zposition Xrotation Yrotation Zrotation
	JOINT Pelvis
	{
		OFFSET 0.000000 0.000000 0.000000
		CHANNELS 3 Xrotation Yrotation Zrotation
		JOINT LeftUpLeg
		{
			OFFSET 8.479700 -4.795502 -0.379100
			CHANNELS 3 Xrotation Yrotation Zrotation
			JOINT LeftLeg
			{
				OFFSET 0.024144 -32.555107 0.112900
				CHANNELS 3 Xrotation Yrotation Zrotation
				JOINT LeftFoot
				{
					OFFSET -0.024144 -32.638630 -3.012600
					CHANNELS 3 Xrotation Yrotation Zrotation
					JOINT LeftToeBase
					{
						OFFSET 0.970200 -13.225400 11.864200
						CHANNELS 3 Xrotation Yrotation Zrotation
						End Site
						{
							OFFSET 0.000000 12.319262 0.000000
						}
					}
					JOINT LFootTongue
					{
						OFFSET 1.142400 -1.059800 6.665200
						CHANNELS 3 Xrotation Yrotation Zrotation
						End Site
						{
							OFFSET 0.000000 12.319262 0.000000
						}
					}
				}
				JOINT LeftPantLeg
				{
					OFFSET 0.918482 -16.533964 -2.284700
					CHANNELS 3 Xrotation Yrotation Zrotation
					End Site
					{
						OFFSET 0.350399 24.744368 0.000000
					}
				}
			}
		}
		JOINT RightUpLeg
		{
			OFFSET -8.479700 -4.795502 -0.379100
			CHANNELS 3 Xrotation Yrotation Zrotation
			JOINT RightLeg
			{
				OFFSET -0.023144 -32.555092 0.112900
				CHANNELS 3 Xrotation Yrotation Zrotation
				JOINT RightFoot
				{
					OFFSET 0.023144 -32.638641 -3.012700
					CHANNELS 3 Xrotation Yrotation Zrotation
					JOINT RightToeBase
					{
						OFFSET -0.970200 -13.225400 11.864200
						CHANNELS 3 Xrotation Yrotation Zrotation
						End Site
						{
							OFFSET 0.000000 12.319244 0.000000
						}
					}
					JOINT RFootTongue
					{
						OFFSET -1.142200 -1.059800 6.665200
						CHANNELS 3 Xrotation Yrotation Zrotation
						End Site
						{
							OFFSET 0.000000 12.319243 0.000000
						}
					}
				}
				JOINT RightPantLeg
				{
					OFFSET -0.919482 -16.533978 -2.284800
					CHANNELS 3 Xrotation Yrotation Zrotation
					End Site
					{
						OFFSET -0.350400 24.744419 0.000000
					}
				}
			}
		}
	}
	JOINT Spine
	{
		OFFSET 0.000000 7.722000 1.166200
		CHANNELS 3 Xrotation Yrotation Zrotation
		JOINT Spine1
		{
			OFFSET 0.000000 12.024101 0.248800
			CHANNELS 3 Xrotation Yrotation Zrotation
			JOINT Spine2
			{
				OFFSET 0.000000 11.502998 -0.491200
				CHANNELS 3 Xrotation Yrotation Zrotation
				JOINT Neck
				{
					OFFSET 0.000000 18.430702 -3.123100
					CHANNELS 3 Xrotation Yrotation Zrotation
					JOINT Head
					{
						OFFSET 0.000000 9.051102 1.034000
						CHANNELS 3 Xrotation Yrotation Zrotation
						JOINT HairB
						{
							OFFSET 0.208400 24.786102 24.822300
							CHANNELS 3 Xrotation Yrotation Zrotation
							End Site
							{
								OFFSET 0.000000 32.263779 0.000000
							}
						}
						JOINT HairA
						{
							OFFSET -7.081100 24.428299 23.196600
							CHANNELS 3 Xrotation Yrotation Zrotation
							End Site
							{
								OFFSET 0.000000 32.263779 0.000000
							}
						}
						JOINT Hat
						{
							OFFSET 16.728800 15.048294 -15.439601
							CHANNELS 3 Xrotation Yrotation Zrotation
							End Site
							{
								OFFSET 0.000000 32.263779 0.000000
							}
						}
					}
				}
				JOINT LeftShoulder
				{
					OFFSET 6.197800 13.665199 -4.064700
					CHANNELS 3 Xrotation Yrotation Zrotation
					JOINT LeftArm
					{
						OFFSET 7.778100 -0.187103 -1.709300
						CHANNELS 3 Xrotation Yrotation Zrotation
						JOINT LeftForeArm
						{
							OFFSET 22.049376 0.000000 0.000000
							CHANNELS 3 Xrotation Yrotation Zrotation
							JOINT LeftHand
							{
								OFFSET 23.009392 0.000000 0.000000
								CHANNELS 3 Xrotation Yrotation Zrotation
								JOINT LeftHandThumb1
								{
									OFFSET 3.507191 -2.063065 3.133727
									CHANNELS 3 Xrotation Yrotation Zrotation
									JOINT LeftHandThumb2
									{
										OFFSET 3.101337 -1.790558 1.790558
										CHANNELS 3 Xrotation Yrotation Zrotation
										JOINT LeftHandThumb3
										{
											OFFSET 3.058640 -1.765907 1.765906
											CHANNELS 3 Xrotation Yrotation Zrotation
											End Site
											{
												OFFSET -0.415260 3.926476 -0.049563
											}
										}
									}
								}
								JOINT LeftHandIndex1
								{
									OFFSET 11.334419 -0.901459 3.706815
									CHANNELS 3 Xrotation Yrotation Zrotation
									JOINT LeftHandIndex2
									{
										OFFSET 3.283112 0.000000 0.000000
										CHANNELS 3 Xrotation Yrotation Zrotation
										JOINT LeftHandIndex3
										{
											OFFSET 3.323853 0.000000 0.000000
											CHANNELS 3 Xrotation Yrotation Zrotation
											End Site
											{
												OFFSET -1.135597 3.097809 0.402452
											}
										}
									}
								}
								JOINT LeftHandMiddle1
								{
									OFFSET 11.335861 0.000000 0.000000
									CHANNELS 3 Xrotation Yrotation Zrotation
									JOINT LeftHandMiddle2
									{
										OFFSET 3.410492 0.000000 0.000000
										CHANNELS 3 Xrotation Yrotation Zrotation
										JOINT LeftHandMiddle3
										{
											OFFSET 3.312172 0.000000 0.000000
											CHANNELS 3 Xrotation Yrotation Zrotation
											End Site
											{
												OFFSET -1.150200 3.080154 0.400270
											}
										}
									}
								}
								JOINT LeftHandRing1
								{
									OFFSET 11.514786 -0.013176 -3.003090
									CHANNELS 3 Xrotation Yrotation Zrotation
									JOINT LeftHandRing2
									{
										OFFSET 3.053307 0.000000 0.000000
										CHANNELS 3 Xrotation Yrotation Zrotation
										JOINT LeftHandRing3
										{
											OFFSET 3.295807 0.000000 0.000000
											CHANNELS 3 Xrotation Yrotation Zrotation
											End Site
											{
												OFFSET -1.281006 3.013344 0.375733
											}
										}
									}
								}
								JOINT LeftHandPinky1
								{
									OFFSET 10.518692 -0.960396 -5.730441
									CHANNELS 3 Xrotation Yrotation Zrotation
									JOINT LeftHandPinky2
									{
										OFFSET 2.861649 0.000000 0.000000
										CHANNELS 3 Xrotation Yrotation Zrotation
										JOINT LeftHandPinky3
										{
											OFFSET 2.863380 0.000000 0.000000
											CHANNELS 3 Xrotation Yrotation Zrotation
											End Site
											{
												OFFSET -0.843597 2.711159 0.369971
											}
										}
									}
								}
							}
							JOINT LSleeve
							{
								OFFSET 6.676277 -0.344902 -1.011730
								CHANNELS 3 Xrotation Yrotation Zrotation
								End Site
								{
									OFFSET 0.000000 14.885353 0.000000
								}
							}
						}
					}
				}
				JOINT RightShoulder
				{
					OFFSET -6.197800 13.665199 -4.064700
					CHANNELS 3 Xrotation Yrotation Zrotation
					JOINT RightArm
					{
						OFFSET -7.778100 -0.187103 -1.709300
						CHANNELS 3 Xrotation Yrotation Zrotation
						JOINT RightForeArm
						{
							OFFSET -22.049376 0.000000 0.000000
							CHANNELS 3 Xrotation Yrotation Zrotation
							JOINT RightHand
							{
								OFFSET -23.009392 0.000000 0.000000
								CHANNELS 3 Xrotation Yrotation Zrotation
								JOINT RightHandThumb1
								{
									OFFSET -3.507191 -2.063065 3.133727
									CHANNELS 3 Xrotation Yrotation Zrotation
									JOINT RightHandThumb2
									{
										OFFSET -3.101337 -1.790558 1.790558
										CHANNELS 3 Xrotation Yrotation Zrotation
										JOINT RightHandThumb3
										{
											OFFSET -3.058640 -1.765907 1.765906
											CHANNELS 3 Xrotation Yrotation Zrotation
											End Site
											{
												OFFSET 0.415260 3.926476 -0.049563
											}
										}
									}
								}
								JOINT RightHandIndex1
								{
									OFFSET -11.334419 -0.901459 3.706815
									CHANNELS 3 Xrotation Yrotation Zrotation
									JOINT RightHandIndex2
									{
										OFFSET -3.283112 0.000000 0.000000
										CHANNELS 3 Xrotation Yrotation Zrotation
										JOINT RightHandIndex3
										{
											OFFSET -3.323853 0.000000 0.000000
											CHANNELS 3 Xrotation Yrotation Zrotation
											End Site
											{
												OFFSET 1.135597 3.097809 0.402452
											}
										}
									}
								}
								JOINT RightHandMiddle1
								{
									OFFSET -11.335861 0.000000 0.000000
									CHANNELS 3 Xrotation Yrotation Zrotation
									JOINT RightHandMiddle2
									{
										OFFSET -3.410492 0.000000 0.000000
										CHANNELS 3 Xrotation Yrotation Zrotation
										JOINT RightHandMiddle3
										{
											OFFSET -3.312172 0.000000 0.000000
											CHANNELS 3 Xrotation Yrotation Zrotation
											End Site
											{
												OFFSET 1.150200 3.080154 0.400270
											}
										}
									}
								}
								JOINT RightHandRing1
								{
									OFFSET -11.514786 -0.013176 -3.003090
									CHANNELS 3 Xrotation Yrotation Zrotation
									JOINT RightHandRing2
									{
										OFFSET -3.053307 0.000000 0.000000
										CHANNELS 3 Xrotation Yrotation Zrotation
										JOINT RightHandRing3
										{
											OFFSET -3.295807 0.000000 0.000000
											CHANNELS 3 Xrotation Yrotation Zrotation
											End Site
											{
												OFFSET 1.281006 3.013344 0.375733
											}
										}
									}
								}
								JOINT RightHandPinky1
								{
									OFFSET -10.518692 -0.960396 -5.730441
									CHANNELS 3 Xrotation Yrotation Zrotation
									JOINT RightHandPinky2
									{
										OFFSET -2.861649 0.000000 0.000000
										CHANNELS 3 Xrotation Yrotation Zrotation
										JOINT RightHandPinky3
										{
											OFFSET -2.863380 0.000000 0.000000
											CHANNELS 3 Xrotation Yrotation Zrotation
											End Site
											{
												OFFSET 0.843597 2.711159 0.369971
											}
										}
									}
								}
							}
							JOINT RSleeve
							{
								OFFSET -6.676277 -0.344902 -1.011730
								CHANNELS 3 Xrotation Yrotation Zrotation
								End Site
								{
									OFFSET 0.000000 14.885353 0.000000
								}
							}
						}
					}
				}
				JOINT Backpack
				{
					OFFSET 0.000000 -2.471497 36.677502
					CHANNELS 3 Xrotation Yrotation Zrotation
					End Site
					{
						OFFSET 0.000000 20.427315 0.000000
					}
				}
				JOINT Hood
				{
					OFFSET 0.000000 18.754097 -10.431000
					CHANNELS 3 Xrotation Yrotation Zrotation
					JOINT Hood1
					{
						OFFSET 0.000000 -5.011002 -7.685901
						CHANNELS 3 Xrotation Yrotation Zrotation
						End Site
						{
							OFFSET 0.000000 9.175140 0.000000
						}
					}
				}
				JOINT LHoodieString
				{
					OFFSET 5.250500 16.397697 3.089900
					CHANNELS 3 Xrotation Yrotation Zrotation
					JOINT LHoodieString1
					{
						OFFSET 0.257700 -6.364304 3.694600
						CHANNELS 3 Xrotation Yrotation Zrotation
						JOINT LHoodieString2
						{
							OFFSET 0.000000 -9.643799 2.679100
							CHANNELS 3 Xrotation Yrotation Zrotation
							End Site
							{
								OFFSET 0.000000 10.009018 0.000000
							}
						}
					}
				}
				JOINT RHoodieString
				{
					OFFSET -5.250500 16.397697 3.089900
					CHANNELS 3 Xrotation Yrotation Zrotation
					JOINT RHoodieString1
					{
						OFFSET -0.257700 -6.364304 3.694600
						CHANNELS 3 Xrotation Yrotation Zrotation
						JOINT RHoodieString2
						{
							OFFSET 0.000000 -9.643799 2.679100
							CHANNELS 3 Xrotation Yrotation Zrotation
							End Site
							{
								OFFSET 0.000000 10.009018 0.000000
							}
						}
					}
				}
			}
			JOINT LBackpack_Strap
			{
				OFFSET 15.223200 -7.719803 -6.610900
				CHANNELS 3 Xrotation Yrotation Zrotation
				End Site
				{
					OFFSET 0.000000 16.040596 0.000000
				}
			}
			JOINT RBackpack_Strap
			{
				OFFSET -15.223000 -7.719803 -6.610900
				CHANNELS 3 Xrotation Yrotation Zrotation
				End Site
				{
					OFFSET 0.000000 16.040596 0.000000
				}
			}
		}
	}
	JOINT BoyFacialAnim_Joint
	{
		OFFSET 1.000000 -82.208099 -1.550900
		CHANNELS 3 Xrotation Yrotation Zrotation
		End Site
		{
			OFFSET 0.000000 30.012791 0.000000
		}
	}
}
MOTION
Frames: 4
Frame Time: 0.033333
4.702753 82.700974 256.050934 14.506545 8.864428 3.454653 0.000002 -0.000001 -0.000000 -48.080341 -1.194793 -4.258891 34.301125 -2.876561 6.175380 -20.101424 2.164485 -16.040443 -0.000000 0.000000 -0.000001 -0.000000 0.000000 -0.000000 -0.000000 -0.000000 -0.000001 11.074755 -13.521528 3.598869 23.507694 6.258103 -7.403825 42.633692 13.125947 1.250880 -0.000000 0.000000 0.000000 -0.000000 0.000000 0.000000 -0.000002 -0.000000 -0.000000 14.305273 12.937839 -11.361233 2.127887 2.606007 -2.128443 2.154575 2.554396 -2.147431 -7.347292 -1.378719 -7.437356 -18.269842 -17.752707 3.595526 0.000000 -0.000000 -0.000000 0.000000 -0.000000 -0.000000 0.000000 -0.000000 -0.000000 0.697581 4.151117 -11.320735 -18.520743 8.290707 -28.409769 0.000005 -0.000002 -0.000012 1.456715 11.236762 42.062525 -7.250471 6.570390 0.377760 2.318952 10.829642 4.421477 -0.000002 0.000000 -0.000001 -3.440216 0.055081 -48.800506 0.770662 3.170226 -27.320051 -0.000000 -0.000001 -0.000007 -2.921842 -1.309129 -38.644107 1.352734 4.103578 -36.476379 0.000002 0.000004 -0.000001 -1.316241 0.523990 -36.911247 1.042928 3.648536 -31.896113 0.000001 -0.000000 -0.000000 2.399899 5.525238 -36.220104 1.750951 0.504936 -41.897746 -0.000002 0.000001 -0.000000 0.000003 0.000002 0.000002 -2.276710 -9.809957 -14.724617 -55.250145 39.398495 68.469723 -0.000005 60.043865 -0.000003 3.284846 22.946649 -20.297070 -5.846498 -2.339261 2.546384 4.776813 -6.139379 2.204604 -0.000001 -0.000001 -0.000004 -4.457221 -0.724170 56.509256 0.724958 -3.096214 26.350226 -0.000000 -0.000001 -0.000000 -1.388378 -0.662015 38.510017 2.272188 -5.145038 47.632274 0.000001 0.000002 -0.000003 1.145269 -4.109876 47.381244 1.497797 -4.315900 38.263198 0.000003 0.000000 0.000002 -2.410299 2.918960 27.952254 2.168355 -5.048773 46.463578 0.000003 0.000001 -0.000003 -0.000003 0.000003 0.000002 -0.000001 -0.000000 0.000000 -0.000001 -0.000000 0.000000 -0.000001 -0.000000 0.000000 -0.000001 -0.000000 0.000000 -0.000001 -0.000000 0.000001 -0.000000 0.000001 0.000000 -0.000001 -0.000000 0.000000 -0.000001 -0.000000 0.000001 -0.000000 0.000001 0.000000 0.000003 -0.000001 0.000000 0.000003 -0.000001 0.000000 0.000002 -0.000001 -0.000000 
5.887510 80.465782 264.403503 13.114774 6.546607 3.775051 0.000001 0.000000 -0.000000 -42.471766 -1.301031 -5.564971 28.738916 -4.308596 8.883957 -19.423834 -0.753686 -17.430175 0.000001 0.000001 0.000001 0.000001 0.000001 0.000001 -0.000000 -0.000000 0.000000 12.222335 -10.381140 1.942774 34.397765 5.480172 -7.699579 43.643901 8.346939 1.997482 -0.000001 -0.000000 0.000000 -0.000001 -0.000000 0.000000 -0.000002 -0.000000 0.000000 13.214553 15.280096 -11.144061 1.608558 2.991204 -1.911084 1.634284 2.940656 -1.950154 -6.615326 -1.808657 -7.224924 -17.455739 -19.329015 2.792572 0.000000 -0.000000 -0.000001 0.000000 -0.000000 -0.000001 0.000000 -0.000000 -0.000001 0.617011 3.450660 -10.149525 -13.679572 14.187980 -31.466419 -0.000004 -0.000003 -0.000007 -9.152366 13.831615 44.966895 -7.207213 6.580183 0.369105 2.314209 10.833510 4.425276 -0.000001 -0.000001 0.000002 -3.420770 0.171067 -49.347680 0.767650 3.164396 -27.265613 -0.000000 -0.000000 -0.000002 -2.942884 -1.277753 -38.933506 1.338215 4.083896 -36.273147 0.000003 -0.000001 -0.000002 -1.321523 0.543445 -37.113335 1.039332 3.642734 -31.839272 -0.000003 0.000001 -0.000004 2.222523 5.248726 -37.108039 1.733102 0.484992 -41.675933 -0.000002 -0.000000 -0.000002 -0.000001 -0.000001 -0.000003 -1.590647 -7.465789 -12.918284 -55.044539 41.166103 73.817884 -0.000015 63.382182 0.000009 3.285875 29.363373 -16.906991 -6.101740 -2.612155 2.144805 4.805652 -6.119135 2.224393 0.000006 0.000001 -0.000001 -3.988128 -1.404111 58.508705 0.709662 -3.065169 26.065520 -0.000004 0.000000 -0.000000 -0.993959 -1.509506 41.593168 2.272248 -5.145092 47.632868 0.000002 -0.000001 0.000003 1.557133 -4.529147 49.066904 1.473927 -4.285565 37.945068 0.000000 0.000002 -0.000001 -2.653594 2.533869 31.223493 2.181659 -5.061314 46.614422 0.000003 0.000001 0.000007 -0.000002 0.000003 0.000003 -0.000001 0.000001 -0.000000 -0.000001 0.000001 -0.000000 -0.000001 0.000001 -0.000000 -0.000001 0.000001 -0.000000 -0.000001 0.000001 -0.000000 -0.000003 -0.000001 0.000000 -0.000001 0.000001 -0.000000 -0.000001 0.000001 -0.000000 -0.000003 -0.000001 0.000000 0.000001 0.000002 -0.000001 0.000001 0.000002 -0.000001 0.000001 0.000000 -0.000000 
6.880449 77.456451 272.238129 11.549093 5.738552 3.976900 0.000000 0.000000 0.000000 -43.416408 -0.839024 -7.699553 39.017620 -2.673526 8.630590 -20.064283 -3.900366 -8.555425 -0.000000 0.000000 0.000000 -0.000000 0.000000 0.000000 -0.000001 0.000000 -0.000001 10.113676 -8.559329 0.278180 49.975695 3.833130 -8.112233 42.190253 2.804821 7.321769 -0.000000 0.000000 0.000000 -0.000000 0.000000 0.000000 0.000000 -0.000000 -0.000000 12.240461 15.591876 -10.457881 1.452534 2.969108 -1.642319 1.472610 2.930198 -1.679415 -5.862102 -2.214481 -6.411984 -17.444740 -19.877193 1.689334 -0.000000 -0.000000 -0.000000 -0.000000 -0.000000 -0.000000 -0.000000 -0.000000 -0.000000 0.558336 2.808065 -9.123587 -9.148660 17.033194 -38.012608 -0.000003 -0.123168 -0.000002 -13.679707 13.502917 47.639548 -7.050221 6.157020 -0.221676 2.490675 10.692967 4.286862 -0.000000 0.000000 -0.000001 -3.562600 -0.027814 -48.950900 0.736775 3.103829 -26.700620 -0.000002 0.000000 -0.000003 -3.056378 -1.615694 -38.015142 1.269294 3.988534 -35.294077 0.000002 -0.000001 -0.000005 -1.325727 0.396923 -36.054362 1.014499 3.602504 -31.446365 0.000002 -0.000001 -0.000004 1.805293 4.695833 -37.390143 1.659507 0.400919 -40.749284 -0.000000 -0.000001 0.000001 -0.000001 0.000003 0.000003 -0.884899 -5.178144 -9.714044 -50.280229 42.320433 77.720128 -0.000007 68.362353 0.000007 3.058202 32.197044 -10.716166 -6.266723 -2.955647 1.685748 4.847562 -6.090077 2.252972 0.000000 0.000001 0.000001 -3.483868 -2.210054 61.485718 0.695731 -3.036526 25.803454 -0.000003 -0.000003 0.000005 -0.558065 -2.354453 45.404594 2.286131 -5.157680 47.787664 0.000002 0.000002 0.000002 1.917505 -4.872323 50.918398 1.460575 -4.268415 37.765786 -0.000002 -0.000001 0.000000 -2.817736 2.140409 34.011241 2.200311 -5.078815 46.825475 0.000002 0.000000 0.000000 0.000000 -0.000001 -0.000001 0.000002 -0.000001 0.000001 0.000002 -0.000001 0.000001 0.000002 -0.000001 0.000001 0.000002 -0.000001 0.000001 0.000002 -0.000001 0.000001 0.000002 -0.000001 0.000002 0.000002 -0.000001 0.000001 0.000002 -0.000001 0.000001 0.000002 -0.000001 0.000002 -0.000001 -0.000001 0.000001 -0.000001 -0.000001 0.000001 0.000000 0.000000 0.000000 
7.641170 74.397339 279.222992 9.715915 6.301156 4.935997 0.000000 0.000001 0.000000 -44.102535 -0.825156 -9.561926 49.898326 -3.367717 6.872422 -15.867807 -1.967064 -4.183243 -0.000000 0.000001 -0.000000 -0.000000 0.000001 -0.000000 -0.000002 0.000000 0.000000 4.257093 -6.896632 -1.800687 68.351814 -3.511553 -8.566115 39.201321 4.684358 10.717155 0.000002 0.000000 -0.000000 0.000002 0.000000 -0.000000 0.000000 0.000000 0.000001 12.439537 13.791421 -10.234300 1.916390 2.567076 -1.510413 1.930451 2.544393 -1.520683 -5.228678 -2.585160 -5.291992 -18.657896 -19.816319 0.464167 -0.000000 0.000000 -0.000001 -0.000000 0.000000 -0.000001 -0.000000 0.000000 -0.000001 0.510611 2.488600 -8.173270 -5.767069 16.071572 -47.522045 -0.000009 -0.226359 0.000026 -12.284328 8.988356 48.855814 -6.629537 5.544414 -1.096839 2.878481 10.411752 4.001300 0.000001 -0.000001 -0.000001 -3.859696 -0.596912 -47.421512 0.689542 3.008250 -25.814949 0.000001 -0.000002 -0.000006 -3.117229 -2.405934 -34.883637 1.132601 3.788486 -33.278440 0.000005 -0.000003 -0.000000 -1.227174 0.130958 -33.038171 0.960212 3.512380 -30.571537 -0.000003 -0.000001 -0.000001 1.424021 4.201255 -36.374251 1.523946 0.238675 -38.996542 -0.000006 -0.000001 -0.000002 -0.000003 0.000000 -0.000002 -0.448511 -3.720078 -6.785913 -41.941784 43.281584 80.040986 -0.000040 73.473909 0.000019 4.345827 31.268411 -5.908579 -6.205322 -3.369661 1.242153 4.853100 -6.086254 2.256729 -0.000001 0.000001 -0.000002 -2.977161 -2.630887 62.403586 0.683927 -3.012095 25.580192 0.000001 -0.000000 0.000002 -0.155597 -2.874260 46.952056 2.300229 -5.170357 47.944110 0.000001 0.000001 -0.000002 2.423831 -5.288297 51.972122 1.460908 -4.268856 37.770376 0.000001 -0.000002 0.000000 -2.147578 0.724411 36.128152 2.210191 -5.088036 46.937009 0.000001 0.000000 -0.000001 -0.000001 -0.000000 -0.000000 0.000000 -0.000001 0.000001 0.000000 -0.000001 0.000001 0.000000 -0.000001 0.000001 0.000000 -0.000001 0.000001 0.000000 -0.000001 0.000001 0.000000 0.000003 -0.000001 0.000000 -0.000001 0.000001 0.000000 -0.000001 0.000001 0.000000 0.000003 -0.000001 0.000001 -0.000001 0.000001 0.000001 -0.000001 0.000001 0.000000 0.000001 0.000000 
